<?xml version="1.0" encoding="UTF-8" standalone="no"?>
<!-- Created with Inkscape (http://www.inkscape.org/) -->

<svg
   xmlns:dc="http://purl.org/dc/elements/1.1/"
   xmlns:cc="http://creativecommons.org/ns#"
   xmlns:rdf="http://www.w3.org/1999/02/22-rdf-syntax-ns#"
   xmlns:svg="http://www.w3.org/2000/svg"
   xmlns="http://www.w3.org/2000/svg"
   xmlns:sodipodi="http://sodipodi.sourceforge.net/DTD/sodipodi-0.dtd"
   xmlns:inkscape="http://www.inkscape.org/namespaces/inkscape"
   width="210mm"
   height="297mm"
   viewBox="0 0 210 297"
   version="1.1"
   id="svg8"
   inkscape:export-filename="C:\Users\danie\Pictures\bitmap3.png"
   inkscape:export-xdpi="96"
   inkscape:export-ydpi="96"
   inkscape:version="0.92.4 (5da689c313, 2019-01-14)"
   sodipodi:docname="desenhando.svg">
  <defs
     id="defs2">
    <inkscape:perspective
       sodipodi:type="inkscape:persp3d"
       inkscape:vp_x="-95.249998 : 243.75 : 1"
       inkscape:vp_y="0 : 1000 : 0"
       inkscape:vp_z="114.75 : 243.75 : 1"
       inkscape:persp3d-origin="9.7500022 : 194.25 : 1"
       id="perspective3729" />
    <inkscape:perspective
       sodipodi:type="inkscape:persp3d"
       inkscape:vp_x="-57.932555 : 244.14759 : 1"
       inkscape:vp_y="0 : 969.87096 : 0"
       inkscape:vp_z="164.29415 : 244.14759 : 1"
       inkscape:persp3d-origin="53.180804 : 196.13899 : 1"
       id="perspective3729-8" />
    <inkscape:perspective
       sodipodi:type="inkscape:persp3d"
       inkscape:vp_x="-25.800207 : 246.28713 : 1"
       inkscape:vp_y="0 : 847.52848 : 0"
       inkscape:vp_z="225.58702 : 246.28713 : 1"
       inkscape:persp3d-origin="99.893413 : 204.33446 : 1"
       id="perspective3729-8-9" />
    <inkscape:perspective
       sodipodi:type="inkscape:persp3d"
       inkscape:vp_x="157.06028 : 415.46328 : 1"
       inkscape:vp_y="1535.7188 : -1688.9099 : 0"
       inkscape:vp_z="-159.56606 : 245.75073 : 1"
       inkscape:persp3d-origin="-42.836039 : 488.9835 : 1"
       id="perspective3729-1" />
    <inkscape:perspective
       sodipodi:type="inkscape:persp3d"
       inkscape:vp_x="109.73514 : 182.24876 : 1"
       inkscape:vp_y="0 : 264.58333 : 0"
       inkscape:vp_z="165.29764 : 182.24876 : 1"
       inkscape:persp3d-origin="137.51639 : 169.15189 : 1"
       id="perspective3729-0" />
    <inkscape:perspective
       sodipodi:type="inkscape:persp3d"
       inkscape:vp_x="-93.77206 : 261.9102 : 1"
       inkscape:vp_y="1949.1091 : 747.40172 : 0"
       inkscape:vp_z="145.96597 : -81.729002 : 1"
       inkscape:persp3d-origin="-70.383913 : 53.094221 : 1"
       id="perspective3729-1-4" />
    <inkscape:perspective
       sodipodi:type="inkscape:persp3d"
       inkscape:vp_x="123.88437 : 247.39042 : 1"
       inkscape:vp_y="870.90003 : -1515.3513 : 0"
       inkscape:vp_z="-55.673171 : 95.11813 : 1"
       inkscape:persp3d-origin="10.523953 : 313.35541 : 1"
       id="perspective3729-1-0" />
    <inkscape:perspective
       sodipodi:type="inkscape:persp3d"
       inkscape:vp_x="187.33392 : 216.44588 : 1"
       inkscape:vp_y="1008.0559 : -824.65627 : 0"
       inkscape:vp_z="-20.501683 : 133.57909 : 1"
       inkscape:persp3d-origin="56.120673 : 252.34412 : 1"
       id="perspective3729-1-49" />
    <inkscape:perspective
       sodipodi:type="inkscape:persp3d"
       inkscape:vp_x="174.31476 : 301.65273 : 1"
       inkscape:vp_y="890.66914 : -1118.9745 : 0"
       inkscape:vp_z="-9.3186785 : 189.21095 : 1"
       inkscape:persp3d-origin="58.381103 : 350.36299 : 1"
       id="perspective3729-1-9" />
  </defs>
  <sodipodi:namedview
     id="base"
     pagecolor="#ffffff"
     bordercolor="#666666"
     borderopacity="1.0"
     inkscape:pageopacity="0.0"
     inkscape:pageshadow="2"
     inkscape:zoom="0.35"
     inkscape:cx="-135.71429"
     inkscape:cy="671.7013"
     inkscape:document-units="mm"
     inkscape:current-layer="layer1"
     showgrid="false"
     inkscape:window-width="1366"
     inkscape:window-height="705"
     inkscape:window-x="-8"
     inkscape:window-y="-8"
     inkscape:window-maximized="1" />
  <metadata
     id="metadata5">
    <rdf:RDF>
      <cc:Work
         rdf:about="">
        <dc:format>image/svg+xml</dc:format>
        <dc:type
           rdf:resource="http://purl.org/dc/dcmitype/StillImage" />
        <dc:title></dc:title>
      </cc:Work>
    </rdf:RDF>
  </metadata>
  <g
     inkscape:label="Camada 1"
     inkscape:groupmode="layer"
     id="layer1">
    <rect
       style="fill:#000000;stroke-width:0.26458332"
       id="rect4205"
       width="211.66666"
       height="296.33334"
       x="0.75595242"
       y="2.1785715" />
    <rect
       style="fill:#000000;stroke-width:0.26458332"
       id="rect4228"
       width="37.797646"
       height="18.142826"
       x="110.36902"
       y="120.10717" />
    <path
       sodipodi:type="spiral"
       style="fill:#ffffff;fill-rule:evenodd;stroke:#000000;stroke-width:0.26458332"
       id="path4230"
       sodipodi:cx="101.29762"
       sodipodi:cy="93.648811"
       sodipodi:expansion="1"
       sodipodi:revolution="3"
       sodipodi:radius="92.377869"
       sodipodi:argument="-17.918987"
       sodipodi:t0="0"
       d="m 101.29762,93.648811 c 2.76687,3.714421 -3.641889,5.562241 -6.173608,4.59871 -6.860804,-2.611112 -6.672848,-11.86043 -3.023808,-16.945932 6.527277,-9.096771 19.909746,-8.317746 27.718256,-1.448905 11.45929,10.0803 10.02936,28.074756 -0.126,38.490576 -13.5355,13.88265 -36.281677,11.77048 -49.262893,-1.7009 C 54.09403,99.689994 56.902476,72.133572 73.705367,56.607144 94.055921,37.80256 126.45267,41.314443 144.5129,61.457847 165.79625,85.196151 161.57687,122.4508 138.0873,143.0377 110.96765,166.8061 68.843952,161.87672 45.735122,135.03719 19.477401,104.54042 25.118421,57.540119 55.31053,31.9127 89.181514,3.162608 141.06377,9.5163992 169.20735,43.06301 c 31.2447,37.243096 24.17733,94.01123 -12.72522,124.66914"
       transform="matrix(1.3115307,0,0,1.1174377,-37.722193,-10.649802)" />
    <rect
       style="fill:#000000;stroke-width:0.26458332"
       id="rect4232"
       width="213.93451"
       height="92.226196"
       x="0"
       y="87.601196" />
    <path
       sodipodi:type="spiral"
       style="fill:#ffffff;fill-rule:evenodd;stroke:#000000;stroke-width:0.26458332"
       id="path4230-2"
       sodipodi:cx="101.29762"
       sodipodi:cy="93.648811"
       sodipodi:expansion="1"
       sodipodi:revolution="3"
       sodipodi:radius="92.377869"
       sodipodi:argument="-17.918987"
       sodipodi:t0="0"
       d="m 101.29762,93.648811 c 2.76687,3.714421 -3.641889,5.562241 -6.173608,4.59871 -6.860804,-2.611112 -6.672848,-11.86043 -3.023808,-16.945932 6.527277,-9.096771 19.909746,-8.317746 27.718256,-1.448905 11.45929,10.0803 10.02936,28.074756 -0.126,38.490576 -13.5355,13.88265 -36.281677,11.77048 -49.262893,-1.7009 C 54.09403,99.689994 56.902476,72.133572 73.705367,56.607144 94.055921,37.80256 126.45267,41.314443 144.5129,61.457847 165.79625,85.196151 161.57687,122.4508 138.0873,143.0377 110.96765,166.8061 68.843952,161.87672 45.735122,135.03719 19.477401,104.54042 25.118421,57.540119 55.31053,31.9127 89.181514,3.162608 141.06377,9.5163992 169.20735,43.06301 c 31.2447,37.243096 24.17733,94.01123 -12.72522,124.66914"
       transform="matrix(1.3115307,0,0,1.1174377,-37.8188,71.689276)" />
    <rect
       style="fill:#000000;stroke-width:0.26458332"
       id="rect4251"
       width="213.17856"
       height="33.261917"
       x="0.75595242"
       y="146.56548" />
    <path
       sodipodi:type="spiral"
       style="fill:#00ff00;fill-rule:evenodd;stroke:#000000;stroke-width:0.26458332"
       id="path4253"
       sodipodi:cx="97.51786"
       sodipodi:cy="222.16072"
       sodipodi:expansion="1"
       sodipodi:revolution="3"
       sodipodi:radius="99.86013"
       sodipodi:argument="-18.335104"
       sodipodi:t0="0"
       d="m 97.51786,222.16072 c 4.35876,2.46365 -1.170492,7.091 -4.094746,7.24454 -7.924547,0.4161 -11.780207,-8.81129 -10.394335,-15.43403 2.479,-11.84654 16.051313,-16.92376 26.773321,-13.54413 15.73498,4.95974 22.18383,23.37657 16.69392,38.11261 -7.31718,19.64082 -30.730375,27.49139 -49.451891,19.84371 -23.559117,-9.62381 -32.82308,-38.09738 -22.993513,-60.79118 11.904924,-27.48523 45.471735,-38.16866 72.130464,-26.1433 31.4164,14.17146 43.52295,52.85065 29.29311,83.46975 -16.42892,35.35096 -60.232628,48.88304 -94.809046,32.4429 C 21.37722,268.68125 6.4179383,219.74485 25.072454,181.21326 46.000001,137.98664 100.07488,121.59893 142.56007,142.47077 c 47.16662,23.1717 64.98366,82.38929 41.89228,128.82691"
       transform="matrix(0.2591357,0,0,0.25337506,7.9042342,219.73409)" />
    <path
       sodipodi:type="spiral"
       style="fill:#ff0000;fill-rule:evenodd;stroke:#000000;stroke-width:0.26458332"
       id="path4253-2"
       sodipodi:cx="97.51786"
       sodipodi:cy="222.16072"
       sodipodi:expansion="1"
       sodipodi:revolution="3"
       sodipodi:radius="99.86013"
       sodipodi:argument="-18.335104"
       sodipodi:t0="0"
       d="m 97.51786,222.16072 c 4.35876,2.46365 -1.170492,7.091 -4.094746,7.24454 -7.924547,0.4161 -11.780207,-8.81129 -10.394335,-15.43403 2.479,-11.84654 16.051313,-16.92376 26.773321,-13.54413 15.73498,4.95974 22.18383,23.37657 16.69392,38.11261 -7.31718,19.64082 -30.730375,27.49139 -49.451891,19.84371 -23.559117,-9.62381 -32.82308,-38.09738 -22.993513,-60.79118 11.904924,-27.48523 45.471735,-38.16866 72.130464,-26.1433 31.4164,14.17146 43.52295,52.85065 29.29311,83.46975 -16.42892,35.35096 -60.232628,48.88304 -94.809046,32.4429 C 21.37722,268.68125 6.4179383,219.74485 25.072454,181.21326 46.000001,137.98664 100.07488,121.59893 142.56007,142.47077 c 47.16662,23.1717 64.98366,82.38929 41.89228,128.82691"
       transform="matrix(0.2591357,0,0,0.25337506,58.912934,220.58295)" />
    <path
       sodipodi:type="spiral"
       style="fill:#ff00ff;fill-rule:evenodd;stroke:#000000;stroke-width:0.26458332"
       id="path4253-6"
       sodipodi:cx="97.51786"
       sodipodi:cy="222.16072"
       sodipodi:expansion="1"
       sodipodi:revolution="3"
       sodipodi:radius="99.86013"
       sodipodi:argument="-18.335104"
       sodipodi:t0="0"
       d="m 97.51786,222.16072 c 4.35876,2.46365 -1.170492,7.091 -4.094746,7.24454 -7.924547,0.4161 -11.780207,-8.81129 -10.394335,-15.43403 2.479,-11.84654 16.051313,-16.92376 26.773321,-13.54413 15.73498,4.95974 22.18383,23.37657 16.69392,38.11261 -7.31718,19.64082 -30.730375,27.49139 -49.451891,19.84371 -23.559117,-9.62381 -32.82308,-38.09738 -22.993513,-60.79118 11.904924,-27.48523 45.471735,-38.16866 72.130464,-26.1433 31.4164,14.17146 43.52295,52.85065 29.29311,83.46975 -16.42892,35.35096 -60.232628,48.88304 -94.809046,32.4429 C 21.37722,268.68125 6.4179383,219.74485 25.072454,181.21326 46.000001,137.98664 100.07488,121.59893 142.56007,142.47077 c 47.16662,23.1717 64.98366,82.38929 41.89228,128.82691"
       transform="matrix(0.2591357,0,0,0.25337506,108.35221,219.37343)" />
    <path
       sodipodi:type="spiral"
       style="fill:#2c5aa0;fill-rule:evenodd;stroke:#000000;stroke-width:0.26458332"
       id="path4253-1"
       sodipodi:cx="97.51786"
       sodipodi:cy="222.16072"
       sodipodi:expansion="1"
       sodipodi:revolution="3"
       sodipodi:radius="99.86013"
       sodipodi:argument="-18.335104"
       sodipodi:t0="0"
       d="m 97.51786,222.16072 c 4.35876,2.46365 -1.170492,7.091 -4.094746,7.24454 -7.924547,0.4161 -11.780207,-8.81129 -10.394335,-15.43403 2.479,-11.84654 16.051313,-16.92376 26.773321,-13.54413 15.73498,4.95974 22.18383,23.37657 16.69392,38.11261 -7.31718,19.64082 -30.730375,27.49139 -49.451891,19.84371 -23.559117,-9.62381 -32.82308,-38.09738 -22.993513,-60.79118 11.904924,-27.48523 45.471735,-38.16866 72.130464,-26.1433 31.4164,14.17146 43.52295,52.85065 29.29311,83.46975 -16.42892,35.35096 -60.232628,48.88304 -94.809046,32.4429 C 21.37722,268.68125 6.4179383,219.74485 25.072454,181.21326 46.000001,137.98664 100.07488,121.59893 142.56007,142.47077 c 47.16662,23.1717 64.98366,82.38929 41.89228,128.82691"
       transform="matrix(0.2591357,0,0,0.25337506,156.43081,218.3907)" />
    <path
       style="fill:#000000;stroke:#000000;stroke-width:0.26458332px;stroke-linecap:butt;stroke-linejoin:miter;stroke-opacity:1"
       d="M 0.75595241,146.56547 C 212.42261,2.1785714 212.42261,2.1785714 212.42261,2.1785714 L -1.5119047,213.84524 Z"
       id="path4284"
       inkscape:connector-curvature="0" />
  </g>
</svg>
